<svg xmlns="http://www.w3.org/2000/svg" width="760" height="920" viewBox="0 0 760 920"><path fill="#CF0A2C" d="M510.117 530.376h-27.622v136.606h-21.43V530.376h-27.628v-21.43h76.68v21.43zM180.64 127.236h-71.655v158.032h21.43V148.662h28.795v136.606h21.43V127.236zm167.75 381.177h16.347c18.677 0 33.877-15.195 33.877-33.867v-58.97c0-18.677-15.2-33.872-33.877-33.872h-37.773v158.032h21.426v-31.323zm0-105.278h16.347c6.865 0 12.446 5.58 12.446 12.44v58.97c0 6.856-5.58 12.438-12.446 12.438H348.39v-83.848zM71.654 132.13v-7.076H50.22v7.075c0 2.47-1.997 4.477-4.458 4.477H25.884c-2.456 0-4.458-2.007-4.458-4.478V25.902c0-2.466 2.002-4.478 4.458-4.478h19.878c2.46 0 4.458 2.012 4.458 4.478v7.08h21.436v-7.08C71.656 11.62 60.04 0 45.762 0H25.884C11.61 0 0 11.62 0 25.903V132.13c0 14.286 11.61 25.902 25.884 25.902h19.878c14.277 0 25.893-11.616 25.893-25.903zm195.7 238.934H240.24l-3.052 41.44h-21.484l11.636-158.037h52.86l11.71 158.037h-21.485l-3.07-41.44zm-1.588-21.43l-5.464-73.735H247.25l-5.434 73.734h23.95zm328.545 403.144h-27.114l-3.047 41.44h-21.488l11.636-158.032h52.86l11.71 158.032h-21.484l-3.072-41.44zm-1.587-21.43l-5.464-73.73h-13.05l-5.43 73.73h23.945zm119.58 124.043L737.04 920H760c-26.157-67.93-27.095-70.6-27.603-72.056-3.755-10.59-12.47-15.86-20.742-15.86l39.8-70.126H726.82l-32.602 57.54v-57.54h-21.43V920h21.43v-67.91h13.623c2.136 0 3.727 1.387 4.465 3.3z"/></svg>