<svg width="50" height="48" viewBox="0 0 50 48" xmlns="http://www.w3.org/2000/svg"><g fill="none" fill-rule="evenodd"><path fill="#DA2027" d="M25.047 33.923L12.85 40.735l12.194 6.812 12.2-6.815"/><path d="M25.274 43.195c.734 0 1.316-.256 1.943-.724l.386.458c-.602.414-1.506.854-2.652.854-2.094.01-3.437-1.4-3.437-3.12 0-1.754 1.323-3.17 3.225-3.182.864 0 1.4.28 1.748.505l.117.105-.002-.132v-.34h.65v1.73l-.65.008c-.01-.708-.605-1.338-1.547-1.338-.894.007-2.27.386-2.27 2.624 0 1.857 1.235 2.553 2.49 2.553zm-.23 2.79L21.92 44.24l1.07-.6c-.973-.512-1.625-1.414-1.76-2.533l-2.464 1.375-3.127-1.747 9.404-5.25 3.128 1.748-.607.343v2.1h-1.272l-.008-.316c0-.302-.163-.622-.46-.817l-2.688 1.498c-.026.19-.043.386-.043.602 0 .45.115 1.775 1.423 2.144l6.805-3.797 3.135 1.745-9.413 5.25zm.003-11.286L14.24 40.734l10.807 6.036 10.807-6.038L25.047 34.7z" fill="#F2E5D3"/><path d="M45.485 19.122l-.282-.822.168-.062.28.822-.165.062zm.605-1.272l-2.038-.416.71 2.07 2.037.42-.71-2.074zM45.21 16.993c.116-.097.138-.27.05-.388-.09-.12-.26-.143-.378-.048-.12.095-.14.27-.052.39.093.12.262.14.38.046M45.765 10.006l.22.8-.16.048-.222-.8.162-.048zm-.362 2.19l1.344-1.516-.558-2.02-1.348 1.516.56 2.02zM43.627 12.23l-.58-.57.118-.128.58.573-.118.126zm-1.93-.806l1.47 1.45 1.922-.533-1.47-1.45-1.922.534zM47.146 12.592c.137.04.285-.042.327-.186.042-.142-.037-.294-.174-.333-.14-.043-.285.04-.33.185-.04.143.037.292.176.334M41.29 4.772l-.133.09-.404-.657.135-.088.402.655zm-.17 1.405l.825-1.722-1.02-1.66-.827 1.723 1.02 1.66zM44.886 15.47l-.43-.724.148-.094.43.722-.148.095zm-1.702-1.313l1.087 1.83 2.033-.024-1.084-1.83-2.036.024zM44.204 13.5c.094-.118.08-.288-.03-.383-.11-.095-.274-.08-.37.035-.094.114-.082.285.03.38.11.096.274.08.37-.033M47.584 13.782l.018.852-.173.007-.02-.852.174-.006zm-.912 2.082l1.713-1.152-.042-2.16-1.715 1.156.044 2.156zM42.67 5.932c.138-.02.235-.15.218-.292-.02-.14-.144-.238-.28-.218-.138.02-.234.152-.217.292.02.14.144.24.28.218M39.562 6.69l-.67-.357.073-.144.67.355-.073.145zm-1.95-.204l1.697.902 1.598-.996-1.695-.902-1.6.996zM42.507 10.546c.062-.132.01-.288-.117-.35-.128-.063-.282-.007-.344.125-.062.133-.008.29.12.353.126.06.28.005.34-.127M39.997 3.4c.127-.034.207-.17.175-.302-.033-.13-.163-.21-.29-.176-.13.034-.208.17-.177.304.033.13.162.208.292.174M45.065 8.995c.14.002.26-.11.267-.257.004-.145-.105-.268-.248-.27-.14-.006-.26.11-.264.256-.007.144.103.265.245.27M43.85 7.512l-.15.076-.34-.73.148-.074.34.728zm-.34 1.436l1.054-1.685L43.7 5.42 42.65 7.103l.862 1.844zM42.512 31.3c.02-.17-.096-.316-.257-.334-.16-.016-.306.107-.326.27-.02.17.098.317.257.335.163.017.31-.105.325-.27M41.392 32.693l-.388.873-.175-.08.387-.875.175.083zm-1.405.536l1.264 1.922.985-2.208-1.267-1.925-.98 2.21zM44.05 35.05l-.758.564-.11-.16.757-.563.11.16zm-2.435.47l2.088.892 1.92-1.425-2.092-.893-1.915 1.425zM45.418 33.684c-.048-.16-.214-.246-.37-.195-.153.05-.24.22-.194.38.05.157.212.245.37.196.152-.053.24-.223.194-.382M45.304 24.028c-.04-.155-.194-.243-.343-.2-.15.045-.238.206-.198.36.042.154.197.24.346.197.15-.043.236-.205.196-.357M44.738 26.58l-.185-.006.045-.914.187.008-.047.913zm.887-1l-1.798-1.236-.117 2.313 1.796 1.238.12-2.314zM48.363 25.02c-.122.1-.142.282-.046.407.1.12.277.137.4.038.12-.105.14-.287.042-.41-.1-.124-.276-.14-.397-.035M47.852 26.663l.152.1-.482.774-.156-.098.486-.777zm-1.864 1.405l2.175.024 1.23-1.96-2.18-.025-1.225 1.96zM44.225 27.742c-.014-.164-.154-.284-.313-.266-.157.016-.273.164-.26.325.014.164.153.282.312.265.158-.017.274-.162.26-.323M43.208 30.212l-.184-.04.206-.914.184.04-.206.914zm1.063-.843l-1.584-1.584-.523 2.312 1.587 1.583.52-2.31zM47.388 29.843c.14-.08.192-.262.115-.404-.076-.142-.252-.192-.39-.11-.14.08-.19.258-.117.402.08.14.253.19.392.11M46.45 31.025l-.62.692-.14-.13.623-.692.138.13zm-2.252.94l2.18.43 1.572-1.75-2.18-.432-1.572 1.753zM45.346 22.878L45.203 22l.178-.033.144.878-.178.033zm.825-1.174l-1.974-.792.36 2.226 1.97.79-.355-2.224zM45.43 20.676c.136-.076.187-.248.118-.38-.07-.142-.237-.193-.374-.118-.132.074-.183.247-.113.386.07.134.236.185.37.112M49.06 20.904c.094-.123.076-.302-.043-.4-.12-.094-.29-.07-.388.052-.096.122-.077.302.04.398.12.094.292.072.39-.05M48.34 23.136l-.17-.064.306-.84.17.063-.307.84zm1.502-1.74l-2.09.443-.775 2.13 2.09-.446.775-2.128zM36.27 4.286l.058-.145.674.274-.057.145-.674-.274zm.227-.836l-1.434 1.112 1.707.688 1.434-1.11-1.707-.69zM37.038 1.375c.12-.045.182-.18.14-.304-.043-.122-.175-.184-.294-.14-.12.047-.183.184-.14.307.044.122.175.185.294.138M37.84 2.067l.118-.097.448.585-.12.097-.447-.585zm1.16.12L37.87.707l-.63 1.725 1.134 1.48L39 2.186zM40.472 7.842c.036-.138-.04-.28-.17-.317-.135-.04-.274.042-.313.18-.04.136.038.277.17.316.133.037.272-.043.312-.178M48.266 16.356c-.07.132-.024.3.107.374.13.07.29.02.365-.117.072-.134.024-.3-.106-.375-.128-.07-.293-.02-.366.118M38.12 5.483c.022-.136-.065-.262-.194-.284-.132-.022-.257.07-.28.205-.022.135.067.26.197.284.13.02.254-.075.278-.207M41.82 9.268l-.652-.45.093-.14.652.45-.092.14zm-1.99-.448l1.65 1.14 1.765-.835L41.6 7.983l-1.77.837zM48.392 17.988l.17.032-.16.858-.168-.03.158-.86zm-1.167 1.927l1.95-.788.402-2.178-1.95.788-.402 2.177zM35.452 3.552c.008-.13-.088-.242-.213-.25-.13-.006-.24.095-.247.225-.01.13.087.243.214.25.127.007.237-.094.245-.225M38.553 35.544l.157.12-.573.786-.157-.12.573-.786zm.94.562l-.847-2.212-1.45 1.99.85 2.21 1.448-1.988zM42.166 37.188c-.163.016-.286.168-.274.337.014.17.16.294.325.278.163-.016.288-.167.274-.338-.013-.17-.156-.293-.324-.277M40.84 38.526l-.873.392-.077-.184.872-.393.077.186zm-2.522-.082l1.887 1.364 2.21-.99-1.885-1.367-2.212.994zM39.554 34.33c-.053.164.03.336.188.39.157.053.326-.035.38-.197.054-.164-.03-.338-.185-.39-.157-.053-.328.035-.383.197M32.825 1.543l-.026-.208.983-.122.026.208-.985.123zM31.33.555l1.46 1.95 2.496-.305L33.82.25l-2.49.305z" fill="#FAB078"/><path d="M34.717 2.072c17.274 8.538 14.136 29 2.476 36.612l.252.353.38-.26c11.66-7.61 14.405-28.347-2.868-36.886l-.24.182zM4.444 19.055l.28-.82.167.06-.28.822-.166-.062zm-1.147.864l2.036-.417.71-2.072-2.038.417-.708 2.072zM4.885 16.99c-.117-.098-.138-.27-.05-.39.092-.12.26-.14.378-.047.118.096.14.27.053.39-.094.12-.262.14-.38.046M4.492 10.052l-.22.798-.163-.05.22-.798.162.05zm.76.12L3.906 8.655l-.558 2.022 1.344 1.517.56-2.02zM6.35 12.1l.58-.572.118.126-.58.574-.118-.127zm.126-1.213l-1.47 1.448 1.92.534 1.47-1.45-1.92-.533zM2.95 12.587c-.14.04-.286-.042-.33-.185-.04-.142.038-.293.176-.334.138-.042.285.04.328.186.043.143-.036.29-.174.333M9.207 4.113l.135.087-.404.657-.132-.09.4-.654zm.79.4l-.828-1.72L8.15 4.45l.827 1.723 1.02-1.66zM5.06 15.37l.43-.72.148.092-.428.723-.15-.094zm-.183-1.24l-1.085 1.828 2.033.024 1.086-1.83-2.033-.023zM5.892 13.495c-.095-.117-.08-.287.03-.38.11-.097.273-.08.37.033.092.115.08.284-.03.38-.11.096-.275.08-.37-.033M2.685 13.785l-.017.852-.175-.008.018-.85.175.005zm.782-.08l-1.715-1.157-.043 2.16 1.715 1.152.042-2.155zM7.424 5.928c-.136-.02-.234-.15-.216-.292.018-.14.143-.238.28-.218.137.02.234.15.216.292-.018.14-.143.238-.28.218M10.46 6.54l.67-.355.074.144-.67.357-.074-.146zm.422-1.054l-1.695.903 1.598.994 1.697-.9-1.6-.998zM7.587 10.542c-.06-.132-.01-.288.117-.35.13-.063.283-.007.345.125.06.13.007.29-.12.352-.127.06-.28.003-.343-.128M10.1 3.397c-.13-.036-.21-.17-.177-.303.033-.13.162-.21.29-.177.13.034.208.17.177.304-.033.133-.163.21-.29.177M5.03 8.99c-.14.003-.26-.11-.267-.256-.003-.146.105-.267.247-.272.14-.003.26.11.266.258.005.144-.104.265-.246.27M6.586 6.78l.148.075-.342.728-.147-.076.34-.727zm.86.32L6.393 5.415l-.86 1.845 1.053 1.684.862-1.844zM7.583 31.296c-.02-.17.095-.316.256-.333.16-.017.306.106.326.27.02.17-.1.316-.258.334-.163.015-.308-.107-.325-.27M8.878 32.608l.388.873-.176.082-.387-.874.175-.08zm.25-1.594L7.86 32.94l.984 2.21 1.264-1.926-.98-2.21zM6.157 34.887l.758.563-.11.16-.76-.564.112-.16zm.407-.797l-2.09.894 1.918 1.424 2.088-.894-1.916-1.424zM4.677 33.68c.048-.158.213-.245.37-.194.153.05.24.22.193.38-.048.158-.21.245-.367.195-.154-.05-.243-.222-.196-.38M4.79 24.024c.04-.154.195-.243.344-.2.15.046.24.206.2.36-.042.153-.198.24-.347.196-.15-.043-.237-.204-.196-.356M5.31 25.665l.187-.01.045.915-.184.008-.048-.913zm-.72 2.225l1.795-1.237-.116-2.313-1.8 1.238.12 2.312zM1.733 25.015c.12.1.14.284.045.407-.1.12-.277.138-.398.04-.12-.105-.14-.287-.044-.41.1-.124.276-.14.397-.037M2.728 27.434l-.156.1-.48-.775.15-.1.486.774zm.155-1.33l-2.178.024 1.227 1.96 2.175-.024-1.224-1.96zM5.87 27.738c.014-.165.154-.283.313-.267.158.017.273.166.26.327-.014.164-.153.28-.312.265-.157-.017-.273-.163-.26-.324M6.68 29.294l.185-.04.207.913-.185.042-.206-.916zm-.334 2.384l1.586-1.583-.522-2.313-1.587 1.582.523 2.314zM2.707 29.84c-.14-.08-.19-.264-.116-.405.08-.142.254-.19.394-.108.138.077.188.257.114.4-.078.142-.252.193-.39.113M3.782 30.89l.622.692-.14.13-.62-.69.138-.132zm.543-.68l-2.18.43 1.573 1.75 2.18-.43-1.573-1.75zM4.57 22.842l.144-.88.177.034-.14.878-.18-.032zM3.57 23.926l1.972-.79.36-2.227-1.976.79-.356 2.226zM4.665 20.672c-.135-.075-.187-.247-.12-.382.073-.14.24-.192.376-.116.133.075.185.248.115.386-.07.135-.237.186-.37.112M1.035 20.9c-.094-.123-.075-.302.043-.398.118-.095.292-.074.39.05.094.123.074.302-.045.4-.117.092-.29.07-.388-.05M1.45 22.29l.17-.06.305.838-.168.064-.306-.84zm-.422 1.23l2.09.446-.773-2.13-2.092-.444.775 2.13zM13.15 4.555l-.057-.146.674-.273.058.144-.674.275zm-1.26-.418l1.435 1.11 1.707-.69-1.435-1.11-1.706.69zM13.056 1.372c-.12-.046-.18-.182-.14-.305.044-.123.176-.186.296-.14.12.046.182.183.138.307-.043.122-.174.183-.294.138M11.808 2.648l-.12-.097.45-.584.117.098-.447.584zm-.087 1.26l1.133-1.48-.63-1.726-1.13 1.48.628 1.725zM9.624 7.84c-.038-.14.04-.282.17-.32.134-.037.273.043.31.18.04.137-.037.278-.17.317-.132.037-.27-.044-.31-.178M1.83 16.35c.07.135.023.302-.107.376-.13.07-.292.02-.366-.117-.072-.134-.024-.303.106-.375.13-.07.293-.02.366.116M11.974 5.48c-.02-.136.066-.264.196-.285.132-.022.255.07.278.207.023.134-.067.26-.196.282-.13.02-.255-.072-.278-.204M8.182 9.124l.65-.45.095.14-.653.45-.092-.14zm.315-1.145L6.85 9.12l1.765.838 1.65-1.14-1.768-.84zM1.86 18.844l-.17.03-.16-.858.173-.032.158.86zm.608-1.11l-1.95-.787.403 2.175 1.95.79-.402-2.177zM14.642 3.55c-.007-.133.09-.244.215-.25.127-.008.237.092.246.223.01.13-.088.242-.215.25-.127.006-.237-.094-.246-.224M12.116 36.325l-.158.12-.574-.785.158-.12.574.785zm-.066 1.764l.85-2.21-1.45-1.99-.85 2.212 1.45 1.987zM7.93 37.184c.162.016.286.168.273.336-.014.17-.16.295-.324.28-.165-.016-.29-.168-.277-.34.015-.17.158-.292.327-.276M9.333 38.336l.873.395-.077.184-.874-.392.077-.186zm.23-.888L7.68 38.814l2.21.99 1.887-1.363-2.213-.992zM10.54 34.326c.053.163-.03.336-.186.39-.157.054-.328-.036-.382-.197-.053-.164.03-.338.187-.39.155-.054.326.035.38.196M16.285 1.417l.026-.208.985.12-.024.21-.985-.123zm-.01-1.17l-1.465 1.95 2.494.304L18.766.553 16.274.246z" fill="#FAB078"/><path d="M15.377 2.068c-17.273 8.54-14.136 29-2.474 36.613l-.253.354-.38-.26C.61 31.165-2.133 10.427 15.14 1.89l.24.18z" fill="#FAB078"/><path fill="#F2E5D3" d="M18.79 28.4h-.167l-1.233 2.776h.59l.734-1.72.742 1.72h.59l-1.2-2.698M24.686 30.053h1.035v-.515h-1.034v-.54h1.237v-.522H24.13v2.7h1.833v-.517h-1.277M30.596 28.475v.523h.8v2.178h.557v-2.178h.806v-.523"/><path fill="#FAB078" d="M25.72 11.606H12.375v2.782h7.935L12.552 25.98h3.544"/><path d="M12.633 11.865V13h10.38l2.222-1.135H12.633zm1.86 13.856H13.04l7.756-11.59L23.012 13l-8.518 12.72z" fill="#F2E5D3"/><path d="M31.675 23.625c-2.532 0-4.592-2.167-4.592-4.832s2.06-4.832 4.592-4.832c2.534 0 4.595 2.168 4.595 4.833s-2.06 4.832-4.595 4.832m0-12.456c-4.176 0-7.573 3.42-7.573 7.623s3.397 7.622 7.573 7.622c4.178 0 7.578-3.42 7.578-7.622 0-4.203-3.4-7.624-7.578-7.624" fill="#FAB078"/><path d="M31.675 11.43c-4.036 0-7.315 3.3-7.315 7.363 0 1.295.335 2.512.92 3.57l1.055-.588c-.473-.887-.744-1.902-.744-2.982 0-3.437 2.728-6.23 6.086-6.23 2.3 0 4.306 1.313 5.34 3.245l1.056-.588c-1.252-2.26-3.65-3.79-6.397-3.79m4.283 4.97l1.06-.592c.474.887.744 1.905.744 2.985 0 3.437-2.732 6.228-6.086 6.228-2.303 0-4.308-1.312-5.34-3.245l1.058-.59c.82 1.604 2.43 2.7 4.28 2.7 2.676 0 4.854-2.288 4.854-5.092 0-.864-.207-1.678-.57-2.392" fill="#F2E5D3"/></g></svg>