<svg width="24" height="20" viewBox="0 0 24 20" xmlns="http://www.w3.org/2000/svg">
    <path d="M24 2.222c-.406 1.08-1.186 2.255-2.182 2.777 0 8.353-4.892 15-14.182 15-2.794 0-5.83-.868-7.636-2.223 3.273 0 5.897-.66 7.636-2.222-1.875 0-4.125-1.528-4.91-3.334.883.217 1.807.244 2.73 0-2.286-.624-4.093-2.776-4.365-5 .648.348 1.33.557 2.183.557C1.09 6.145.58 3.057 1.635 1.11 4.5 4.757 8.11 6.456 12.218 6.668 12.068 6.145 12 5.395 12 5c0-3.123 1.926-5 4.91-5 1.414 0 2.7.688 3.6 1.667C21.954 1.39 22.91.867 24 0c-.58 1.562-1.404 2.5-2.73 3.333 1.007-.124 1.74-.452 2.73-1.11" fill="#F2E5D3" fill-rule="evenodd"/>
</svg>