<svg width="28" height="18" viewBox="0 0 28 18" xmlns="http://www.w3.org/2000/svg">
    <path d="M23.26 9.008s3.69-5.204 4.056-6.915c.122-.61-.147-.953-.782-.953h-3.2c-.734 0-1.003.318-1.222.782 0 0-1.73 3.687-3.836 6.01-.676.752-1.02.978-1.393.978-.3 0-.44-.25-.44-.928V2.044c0-.83-.097-1.075-.782-1.075h-5.13c-.39 0-.635.227-.635.537 0 .782 1.197.96 1.197 3.078V8.96c0 .878-.048 1.22-.464 1.22-1.1 0-3.714-3.787-5.18-8.087C5.156 1.213 4.84.97 4.01.97H.805C.342.97 0 1.286 0 1.75c0 .856 1.002 4.814 4.935 10.116 2.64 3.568 6.11 5.498 9.236 5.498 1.907 0 2.37-.318 2.37-1.124v-2.737c0-.684.27-.977.66-.977.44 0 1.217.14 3.03 1.93 2.15 2.053 2.297 2.908 3.47 2.908h3.59c.368 0 .71-.17.71-.782 0-.806-1.05-2.248-2.663-3.958-.66-.88-1.735-1.833-2.077-2.272-.49-.514-.342-.807 0-1.344" fill="#F2E5D3" fill-rule="evenodd"/>
</svg>