<svg xmlns="http://www.w3.org/2000/svg" width="100" height="64" viewBox="0 0 100 64"><path fill="#fab078" d="M20.074 59.857c5.215-.105 8.145-6.037 8.875-10.744.29-1.887.416-3.863.394-5.934-.053-4.98-1.73-14.773-8.31-14.773-2.524 0-5.124 1.236-6.88 4.28-4.2 7.297-2.427 27.35 5.92 27.17zm-8.677-30.494c3.16-2.88 5.39-5.152 10.622-5.395 11.353-.52 18.148 6.27 17.963 18.866-.22 14.29-8.325 21.562-20.518 21.148C3.652 63.452-.265 49.857.015 34.027.247 20.693 6.502 1.707 22.084.074 29.032-.652 37.904 4 37.74 11.844c-.075 3.876-2.445 7.027-6.522 7.027-3.74 0-6.78-3.197-6.457-6.807.284-3.13 1.74-5.498 3.943-6.335.316-.12.452-.662.174-.828-2.202-1.324-4.73-1.33-6.146-1.14C11.8 5.253 9.756 30.866 11.398 29.364zM64.127 24.34c-.225-.215-.34-.64-.29-1.14.17-1.753 2.71-3.335 4.026-4.5 5.455-4.814 17.544-16.044 18.222-16.978 1.217-1.66 3.526-.087 3.53 1.03l.136 53.08c0 .47.187.95.552 1.437.358.476.775.726 1.25.726h6.44c1.307 0 1.967.653 1.988 1.983l.02 1.028c.022 1.326-.646 1.992-1.946 1.992H67.6c-1.304 0-1.96-.666-1.985-1.992l-.018-1.03c-.025-1.33.642-1.982 1.945-1.982h7.186c1.562 0 2.313-.687 2.31-2.043l-.118-34.73c-.004-.964-.395-1.503-1.164-1.618-3.353-.535-8.926 7.258-11.63 4.734zM56.5 21c0-2.762-2.018-5-4.5-5-2.486 0-4.5 2.238-4.5 5 0 2.76 2.014 5 4.5 5 2.482 0 4.5-2.24 4.5-5zM56.5 43c0-2.762-2.018-5-4.5-5-2.486 0-4.5 2.238-4.5 5 0 2.76 2.014 5 4.5 5 2.482 0 4.5-2.24 4.5-5z"/></svg>